<svg width="25" height="25" viewBox="0 0 25 25" fill="none" xmlns="http://www.w3.org/2000/svg">
<path fill-rule="evenodd" clip-rule="evenodd" d="M12.5 4.16666C17.8355 4.16666 22.4952 7.27386 24.8489 11.8663C24.9482 12.0627 25 12.2797 25 12.4998C25 12.7198 24.9482 12.9368 24.8489 13.1332C22.4965 17.7239 17.8355 20.8333 12.5 20.8333C7.16447 20.8333 2.50475 17.7261 0.151018 13.1337C0.0517306 12.9373 0 12.7203 0 12.5002C0 12.2801 0.0517306 12.0631 0.151018 11.8667C2.50345 7.27603 7.16447 4.16666 12.5 4.16666ZM9.02766 17.6967C10.0555 18.3834 11.2638 18.75 12.5 18.75C13.3208 18.7504 14.1338 18.589 14.8922 18.2751C15.6507 17.9611 16.3398 17.5007 16.9203 16.9203C17.5007 16.3399 17.9611 15.6507 18.275 14.8922C18.589 14.1338 18.7504 13.3209 18.75 12.5C18.75 11.2639 18.3834 10.0555 17.6967 9.02768C17.0099 7.99987 16.0338 7.19879 14.8917 6.72574C13.7497 6.2527 12.493 6.12892 11.2807 6.37008C10.0683 6.61124 8.95464 7.20649 8.08056 8.08057C7.20648 8.95465 6.61123 10.0683 6.37007 11.2807C6.12891 12.4931 6.25268 13.7497 6.72573 14.8918C7.19878 16.0338 7.99985 17.0099 9.02766 17.6967ZM11.9656 8.37552C12.1424 8.34995 12.3209 8.33582 12.5 8.33332C13.3696 8.33128 14.2179 8.60198 14.9256 9.10733C15.5084 9.5235 15.9716 10.0816 16.2735 10.7253C16.5322 11.2687 16.677 11.8767 16.677 12.5185C16.677 14.8253 14.8069 16.6954 12.5001 16.6954C10.1933 16.6954 8.32324 14.8253 8.32324 12.5185C8.32324 10.3928 9.91121 8.63794 11.9656 8.37552Z" fill="white"/>
</svg>
