<svg width="1108" height="388" viewBox="0 0 1108 388" fill="none" xmlns="http://www.w3.org/2000/svg">
<path d="M161.993 347.71V357.386H156.499V352.22H146.249V362.347H140.427V352.22H130.259V357.386H125.011V347.71H140.427V346.726H128.045V342.134H158.713V346.726H146.249V347.71H161.993ZM139.566 353.163V356.935H131.243V353.163H139.566ZM155.474 353.163V356.935H147.151V353.163H155.474ZM130.341 357.796H139.607V361.568H130.341V357.796ZM147.151 357.796H156.417V361.568H147.151V357.796ZM128.824 362.798H158.262V379.444H152.276V378.706H134.523V379.772H128.824V362.798ZM134.523 367.226V368.579H140.427V367.226H134.523ZM152.276 367.226H146.249V368.579H152.276V367.226ZM152.276 374.278V372.884H146.249V374.278H152.276ZM140.427 374.278V372.884H134.523V374.278H140.427Z" fill="white"/>
<path d="M264.575 350.047C264.575 350.047 264.575 350.211 264.575 350.539C264.575 350.867 264.561 351.236 264.534 351.646C264.534 352.028 264.534 352.343 264.534 352.589C264.452 356.743 264.356 360.283 264.247 363.208C264.165 366.132 264.056 368.551 263.919 370.465C263.81 372.351 263.646 373.84 263.427 374.934C263.208 376 262.935 376.779 262.607 377.271C262.088 378.036 261.555 378.583 261.008 378.911C260.461 379.239 259.833 379.485 259.122 379.649C258.466 379.785 257.687 379.867 256.785 379.895C255.883 379.922 254.94 379.922 253.956 379.895C253.901 379.075 253.71 378.118 253.382 377.025C253.081 375.959 252.699 375.029 252.234 374.237C253.054 374.319 253.792 374.373 254.448 374.401C255.131 374.401 255.678 374.401 256.088 374.401C256.662 374.401 257.127 374.155 257.482 373.663C257.755 373.307 257.974 372.487 258.138 371.203C258.302 369.918 258.439 368.005 258.548 365.463C258.657 362.921 258.739 359.6 258.794 355.5H256.293C256.102 359.19 255.719 362.565 255.145 365.627C254.571 368.688 253.655 371.435 252.398 373.868C251.141 376.3 249.391 378.432 247.15 380.264C246.877 379.799 246.494 379.266 246.002 378.665C245.537 378.091 245.045 377.544 244.526 377.025C241.41 377.325 238.321 377.612 235.26 377.886C232.226 378.159 229.506 378.405 227.101 378.624L226.445 373.704C227.566 373.649 228.809 373.581 230.176 373.499C231.543 373.417 232.978 373.321 234.481 373.212V371.449H227.593V367.308H234.481V366.242H227.757V353.204H234.481V352.179H226.773V347.956H234.481V346.972C232.294 347.081 230.121 347.163 227.962 347.218C227.88 346.616 227.716 345.919 227.47 345.127C227.224 344.307 226.964 343.61 226.691 343.036C228.741 342.926 230.832 342.79 232.964 342.626C235.123 342.434 237.187 342.216 239.155 341.97C241.123 341.696 242.886 341.396 244.444 341.068L246.945 345.455C245.879 345.673 244.745 345.878 243.542 346.07C242.367 346.234 241.137 346.384 239.852 346.521V347.956H247.273V352.179H239.852V353.204H246.74V366.242H239.852V367.308H246.986V371.449C248.271 369.399 249.173 367.062 249.692 364.438C250.211 361.786 250.539 358.807 250.676 355.5H247.437V350.047H250.799V341.724H256.498C256.498 343.172 256.498 344.594 256.498 345.988C256.498 347.382 256.484 348.735 256.457 350.047H264.575ZM232.431 358.042H234.481V356.812H232.431V358.042ZM239.852 356.812V358.042H241.861V356.812H239.852ZM234.481 362.634V361.404H232.431V362.634H234.481ZM241.861 361.404H239.852V362.634H241.861V361.404ZM239.852 372.843C240.945 372.761 242.025 372.679 243.091 372.597C244.184 372.515 245.278 372.433 246.371 372.351C246.48 372.214 246.576 372.077 246.658 371.941C246.767 371.777 246.877 371.613 246.986 371.449H239.852V372.843Z" fill="white"/>
<path d="M343.869 346.562H331.118V342.134H343.869V346.562ZM367.895 366.283H359.162V379.854H353.299V366.283H344.812V360.666H353.299V348.366H346.124V342.831H367.198V348.366H359.162V360.666H367.895V366.283ZM345.427 352.384H328.986V347.751H345.427V352.384ZM359.736 358.78C360.009 357.905 360.269 356.921 360.515 355.828C360.788 354.734 361.021 353.627 361.212 352.507C361.431 351.359 361.595 350.306 361.704 349.35L367.321 350.457C366.802 352.179 366.282 353.887 365.763 355.582C365.244 357.249 364.752 358.684 364.287 359.887L359.736 358.78ZM350.921 349.719C351.331 351.167 351.686 352.739 351.987 354.434C352.288 356.128 352.479 357.604 352.561 358.862L347.559 359.969C347.559 359.121 347.491 358.165 347.354 357.099C347.217 356.033 347.053 354.939 346.862 353.819C346.671 352.698 346.452 351.659 346.206 350.703L350.921 349.719ZM330.995 353.614H343.951V358.042H330.995V353.614ZM330.995 359.272H343.951V363.7H330.995V359.272ZM343.869 377.804H335.833V379.28H330.831V365.053H343.869V377.804ZM335.833 369.686V373.171H338.785V369.686H335.833Z" fill="white"/>
<path d="M450.551 354.024C450.032 354.434 449.512 354.83 448.993 355.213C448.501 355.568 447.982 355.896 447.435 356.197C447.216 355.65 446.916 355.035 446.533 354.352C446.15 353.641 445.768 352.985 445.385 352.384H431.486V347.751H446.451V350.17C447.626 349.35 448.747 348.42 449.813 347.382C450.906 346.343 451.89 345.263 452.765 344.143C453.64 343.022 454.35 341.97 454.897 340.986H460.186C461.115 342.325 462.154 343.637 463.302 344.922C464.477 346.179 465.721 347.327 467.033 348.366C468.345 349.377 469.684 350.183 471.051 350.785C470.504 351.468 469.944 352.288 469.37 353.245C468.823 354.201 468.345 355.103 467.935 355.951C467.443 355.65 466.951 355.336 466.459 355.008C465.967 354.652 465.475 354.283 464.983 353.901V356.607H450.551V354.024ZM444.893 346.562H433.618V342.134H444.893V346.562ZM462.523 351.769C461.566 350.867 460.678 349.937 459.858 348.981C459.038 348.024 458.327 347.108 457.726 346.234C456.551 348.038 455.02 349.883 453.134 351.769H462.523ZM445.016 358.042H433.372V353.614H445.016V358.042ZM468.632 374.893C468.632 375.877 468.536 376.683 468.345 377.312C468.181 377.968 467.812 378.487 467.238 378.87C466.691 379.225 466.09 379.444 465.434 379.526C464.778 379.635 464.054 379.69 463.261 379.69C463.206 379.143 463.07 378.528 462.851 377.845C462.66 377.189 462.455 376.574 462.236 376V379.444H458.423V371.49H457.193V379.444H453.421V371.49H452.273V379.567H447.353V358.452H468.632V374.893ZM433.372 359.272H445.016V363.7H433.372V359.272ZM458.423 366.857V363.126H457.193V366.857H458.423ZM453.421 366.857V363.126H452.273V366.857H453.421ZM462.236 363.126V366.857H463.548V363.126H462.236ZM445.139 377.722H438.005V379.28H433.208V365.053H445.139V377.722ZM438.005 369.645V373.13H440.301V369.645H438.005ZM462.236 375.262H463.179C463.425 375.262 463.548 375.111 463.548 374.811V371.49H462.236V375.262Z" fill="white"/>
<path d="M538.332 382.068L534.724 379.977C535.353 379.703 535.968 379.389 536.569 379.034C537.17 378.678 537.621 378.255 537.922 377.763H537.717C537.225 377.763 536.706 377.64 536.159 377.394C535.64 377.148 535.189 376.765 534.806 376.246C534.451 375.726 534.273 375.07 534.273 374.278C534.273 373.676 534.423 373.048 534.724 372.392C535.052 371.736 535.558 371.175 536.241 370.711C536.952 370.219 537.895 369.973 539.07 369.973C540.573 369.973 541.639 370.383 542.268 371.203C542.924 372.023 543.252 373.061 543.252 374.319C543.252 375.029 543.074 375.877 542.719 376.861C542.391 377.872 541.858 378.856 541.12 379.813C540.409 380.769 539.48 381.521 538.332 382.068Z" fill="white"/>
<path d="M647.925 357.14C647.898 357.878 647.87 358.616 647.843 359.354C647.843 360.092 647.816 360.843 647.761 361.609H668.261V379.895H661.66V367.882H646.9C646.435 370.123 645.711 372.296 644.727 374.401C643.77 376.505 642.445 378.446 640.75 380.223C640.422 379.703 639.985 379.129 639.438 378.501C638.891 377.872 638.317 377.257 637.716 376.656C637.115 376.082 636.568 375.617 636.076 375.262C637.743 373.485 638.973 371.503 639.766 369.317C640.559 367.13 641.064 364.861 641.283 362.511C641.529 360.16 641.652 357.878 641.652 355.664V341.724H647.925V350.949H657.109V340.986H663.587V350.949H672.279V357.14H647.925Z" fill="white"/>
<path d="M775.025 350.949H759.486V342.544H775.025V350.949ZM757.518 350.949H742.102V342.544H757.518V350.949ZM769.449 345.988H764.734V347.505H769.449V345.988ZM751.942 345.988H747.35V347.505H751.942V345.988ZM776.993 375.016H761.372V379.895H755.181V375.016H740.052V369.932H755.181V368.374H743.783V352.302H773.508V368.374H761.372V369.932H776.993V375.016ZM749.605 358.247H755.181V356.812H749.605V358.247ZM767.358 356.812H761.372V358.247H767.358V356.812ZM755.181 363.864V362.429H749.605V363.864H755.181ZM767.358 362.429H761.372V363.864H767.358V362.429Z" fill="white"/>
<path d="M869.038 341.232C869.885 342.899 870.965 344.621 872.277 346.398C873.616 348.174 875.051 349.869 876.582 351.482C878.14 353.094 879.671 354.516 881.174 355.746C880.655 356.156 880.067 356.689 879.411 357.345C878.755 357.973 878.126 358.629 877.525 359.313C876.951 359.969 876.473 360.584 876.09 361.158C875.817 360.857 875.516 360.556 875.188 360.256C874.887 359.955 874.587 359.641 874.286 359.313C874.177 363.139 874.04 366.283 873.876 368.743C873.712 371.175 873.493 373.061 873.22 374.401C872.947 375.74 872.578 376.697 872.113 377.271C871.512 378.036 870.883 378.569 870.227 378.87C869.598 379.198 868.86 379.43 868.013 379.567C867.302 379.676 866.4 379.744 865.307 379.772C864.241 379.799 863.12 379.799 861.945 379.772C861.918 378.897 861.713 377.886 861.33 376.738C860.975 375.59 860.524 374.592 859.977 373.745C861.016 373.827 861.972 373.881 862.847 373.909C863.749 373.936 864.46 373.95 864.979 373.95C865.334 373.95 865.635 373.909 865.881 373.827C866.127 373.745 866.373 373.581 866.619 373.335C867.002 372.925 867.289 371.804 867.48 369.973C867.699 368.141 867.876 365.326 868.013 361.527H861.289C861.043 363.467 860.647 365.34 860.1 367.144C859.581 368.948 858.788 370.656 857.722 372.269C856.656 373.854 855.235 375.316 853.458 376.656C851.709 377.995 849.481 379.184 846.775 380.223C846.529 379.649 846.187 379.02 845.75 378.337C845.34 377.653 844.875 376.984 844.356 376.328C843.864 375.672 843.372 375.125 842.88 374.688C845.121 373.95 846.966 373.102 848.415 372.146C849.891 371.189 851.053 370.15 851.9 369.03C852.747 367.909 853.39 366.72 853.827 365.463C854.264 364.178 854.579 362.866 854.77 361.527H848.62V358.903C848.155 359.367 847.677 359.818 847.185 360.256C846.72 360.693 846.242 361.103 845.75 361.486C845.395 361.048 844.903 360.529 844.274 359.928C843.645 359.299 843.003 358.684 842.347 358.083C841.691 357.481 841.117 357.003 840.625 356.648C842.32 355.527 843.932 354.174 845.463 352.589C846.994 350.976 848.374 349.213 849.604 347.3C850.861 345.359 851.886 343.364 852.679 341.314L859.157 343.2C858.2 345.441 857.066 347.641 855.754 349.801C854.442 351.933 853.021 353.914 851.49 355.746H871.211C869.708 353.887 868.259 351.919 866.865 349.842C865.471 347.737 864.227 345.646 863.134 343.569L869.038 341.232Z" fill="white"/>
<path d="M981.337 348.653H945.503V343.692H960.099V340.945H966.413V343.692H981.337V348.653ZM950.013 359.559V350.088H977.237V359.559H950.013ZM955.958 355.582H970.882V354.065H955.958V355.582ZM982.116 372.72H966.536V374.688C966.536 376.082 966.304 377.12 965.839 377.804C965.374 378.487 964.582 379.006 963.461 379.362C962.368 379.662 961.097 379.84 959.648 379.895C958.199 379.949 956.587 379.977 954.81 379.977C954.619 379.211 954.332 378.378 953.949 377.476C953.566 376.574 953.184 375.781 952.801 375.098C953.512 375.125 954.304 375.152 955.179 375.18C956.081 375.207 956.901 375.221 957.639 375.221C958.377 375.221 958.855 375.221 959.074 375.221C959.484 375.193 959.771 375.125 959.935 375.016C960.099 374.906 960.181 374.701 960.181 374.401V372.72H944.806V367.718H960.181V366.406H962.723C963.188 366.242 963.639 366.064 964.076 365.873C964.541 365.681 964.992 365.49 965.429 365.299H948.906V360.748H973.055L974.408 360.502L978.057 363.741C976.909 364.424 975.679 365.107 974.367 365.791C973.082 366.474 971.743 367.116 970.349 367.718H982.116V372.72Z" fill="white"/>
<path d="M113.107 232.4H174.107L165.356 282C165.356 282 163.238 299.325 142.15 302.121C121.062 304.916 87.131 305.582 87.131 305.582L90.2315 261.574C90.2315 261.574 107.157 262.069 108.806 261.08C110.454 260.091 113.107 232.4 113.107 232.4Z" fill="white"/>
<path fill-rule="evenodd" clip-rule="evenodd" d="M192.978 126.584H124.978L123.495 136.473H45.495L40.8969 167.13H264.897L269.495 136.473H191.495L192.978 126.584Z" fill="white"/>
<path fill-rule="evenodd" clip-rule="evenodd" d="M80.8584 174.053H41.8584L33.1071 232.401H72.1071H103.107H182.107H188.107H252.107L260.858 174.053H196.858H190.858H111.858H80.8584ZM108.299 197.788L107.26 204.71H186.26L187.299 197.788H108.299Z" fill="white"/>
<path fill-rule="evenodd" clip-rule="evenodd" d="M61.2893 44.5024H100.289H131.289H210.289H216.289H280.289L267.533 129.551H203.533H197.533H118.533H87.5332H48.5332L61.2893 44.5024ZM125.95 80.1042L126.988 73.1817H205.988L204.95 80.1042H125.95ZM123.576 95.9272L122.686 101.861H201.686L202.576 95.9272H123.576Z" fill="white"/>
<path d="M251.741 311.516L272.581 172.57C295.581 172.57 373.495 136.474 389.349 124.112L368.88 260.585C346.561 279.375 275.983 306.571 251.741 311.516Z" fill="white"/>
<path d="M383.653 30.2382L399.191 63.1703C366.572 100.372 297.137 145.675 282.489 148.314L280.979 109.918C316.965 93.6457 371.493 41.8265 383.653 30.2382Z" fill="white"/>
<path d="M251.741 311.516L272.581 172.57C295.581 172.57 373.495 136.474 389.349 124.112L368.88 260.585C346.561 279.375 275.983 306.571 251.741 311.516Z" fill="white"/>
<path d="M202.169 298.66C209.415 290.353 232.353 274.101 242.916 267.014C240.973 256.63 202.349 227.456 199.349 227.456C196.949 227.456 171.864 246.246 159.622 255.641C170.891 267.178 195.178 291.935 202.169 298.66Z" fill="white"/>
<path d="M11.9899 266.519C18.1437 273.791 48.0701 293.131 51.9277 303.604C76.9301 290.253 105.151 248.673 106.105 245.751C106.868 243.412 66.4233 226.961 66.4233 226.961C51.0947 237.644 26.0282 259.596 11.9899 266.519Z" fill="white"/>
<path fill-rule="evenodd" clip-rule="evenodd" d="M714.672 181.965H398.672L395.705 201.744L393.184 218.556L391.997 226.467L387.251 258.113L386.212 265.036L380.576 302.615L379.983 306.571H455.983L456.576 302.615H620.576L619.983 306.571H695.983L696.576 302.615L702.212 265.036L703.251 258.113L707.997 226.467L709.184 218.556L711.705 201.744L714.672 181.965ZM627.251 258.113L626.212 265.036H580.212L581.251 258.113H627.251ZM509.251 258.113L508.212 265.036H462.212L463.251 258.113H509.251ZM585.997 226.467H631.997L633.184 218.556H587.184L585.997 226.467ZM515.184 218.556L513.997 226.467H467.997L469.184 218.556H515.184Z" fill="white"/>
<path fill-rule="evenodd" clip-rule="evenodd" d="M421.289 44.5024H733.289L726.17 91.9715H608.17L607.428 96.9162H735.428L723.562 176.031H581.562L586.012 146.363C587.978 133.255 578.826 122.629 565.571 122.629C552.317 122.629 539.978 133.255 538.012 146.363L533.562 176.031H391.562L403.428 96.9162H531.428L532.17 91.9715H414.17L421.289 44.5024Z" fill="white"/>
<path d="M623.016 119.662H698.016L691.935 160.208H636.935C625.889 160.208 618.263 151.353 619.901 140.429L623.016 119.662Z" fill="#FF0000"/>
<path d="M508.016 119.662H433.016L426.935 160.208H481.935C492.981 160.208 503.263 151.353 504.901 140.429L508.016 119.662Z" fill="#0075FF"/>
<path d="M741.114 105.678L769.132 46.48C777.135 46.48 821.688 64.3888 842.964 73.3431L818.152 128.562C809.9 125.577 750.534 106.673 741.114 105.678Z" fill="white"/>
<path fill-rule="evenodd" clip-rule="evenodd" d="M1006.29 57.853C1005.35 64.101 998.189 69.6174 988.027 72.9181L986.356 84.0598H1085.36L1046.56 118.92L1039.71 128.562H1077.68L1072.64 162.186H990.638L989.748 168.12H1066.75L1062.74 194.821H985.744L984.854 200.755H1065.85L1060.07 239.323H979.069L977.833 247.564C1011.8 246.964 1041.49 245.33 1058.21 244.41C1064.31 244.075 1068.68 243.834 1070.9 243.773C1056.87 263.134 1052.47 281.711 1048.99 296.369C1048.56 298.184 1048.14 299.938 1047.72 301.626C1044.98 301.705 1042.04 301.791 1038.93 301.882C1009.23 302.756 962.992 304.117 902.428 303.604C844.002 303.11 801.653 288.77 784.413 280.364C775.13 288.359 747.989 300.827 736.115 306.281C735.504 306.562 734.934 306.824 734.408 307.065C734.843 304.166 731.43 278.804 728.528 257.242C726.976 245.712 725.571 235.269 724.978 229.928C734.425 228.007 744.347 222.166 751.408 217.063L755.189 191.854H737.189L745.792 134.496H836.792L828.93 186.909L828.189 191.854L821.507 236.405C824.002 237.049 826.579 237.66 829.232 238.238L834.854 200.755H910.854L911.744 194.821H833.744L837.748 168.12H915.748L916.638 162.186H837.638L842.682 128.562H877.836L874.375 117.758L844.356 84.0598H944.356L946.027 72.9181C936.856 69.6174 931.35 64.101 932.287 57.853C933.802 47.7487 951.596 39.5576 972.031 39.5576C992.466 39.5576 1007.8 47.7487 1006.29 57.853ZM834.486 239.323C854.795 243.296 878.947 245.568 903.957 246.739L905.069 239.323H834.486Z" fill="white"/>
<path d="M1067.95 53.4027C1070.08 39.2394 1061.69 25.6562 1044.62 15.6413C1027.56 5.62634 1003.22 1.0693e-06 976.964 0C950.708 -1.0693e-06 924.683 5.62633 904.615 15.6413C884.546 25.6562 872.079 39.2394 869.954 53.4027L920.405 53.4027C921.447 46.4571 927.561 39.7959 937.402 34.8847C947.244 29.9734 960.006 27.2143 972.882 27.2143C985.758 27.2143 997.693 29.9734 1006.06 34.8847C1014.43 39.796 1018.55 46.4571 1017.5 53.4027H1067.95Z" fill="white"/>
</svg>
