<svg width="1108" height="388" viewBox="0 0 1108 388" fill="none" xmlns="http://www.w3.org/2000/svg">
<path d="M161.755 347.71V357.386H156.261V352.22H146.011V362.347H140.189V352.22H130.021V357.386H124.773V347.71H140.189V346.726H127.807V342.134H158.475V346.726H146.011V347.71H161.755ZM139.328 353.163V356.935H131.005V353.163H139.328ZM155.236 353.163V356.935H146.913V353.163H155.236ZM130.103 357.796H139.369V361.568H130.103V357.796ZM146.913 357.796H156.179V361.568H146.913V357.796ZM128.586 362.798H158.024V379.444H152.038V378.706H134.285V379.772H128.586V362.798ZM134.285 367.226V368.579H140.189V367.226H134.285ZM152.038 367.226H146.011V368.579H152.038V367.226ZM152.038 374.278V372.884H146.011V374.278H152.038ZM140.189 374.278V372.884H134.285V374.278H140.189Z" fill="#220C25"/>
<path d="M264.337 350.047C264.337 350.047 264.337 350.211 264.337 350.539C264.337 350.867 264.324 351.236 264.296 351.646C264.296 352.028 264.296 352.343 264.296 352.589C264.214 356.743 264.119 360.283 264.009 363.208C263.927 366.132 263.818 368.551 263.681 370.465C263.572 372.351 263.408 373.84 263.189 374.934C262.971 376 262.697 376.779 262.369 377.271C261.85 378.036 261.317 378.583 260.77 378.911C260.224 379.239 259.595 379.485 258.884 379.649C258.228 379.785 257.449 379.867 256.547 379.895C255.645 379.922 254.702 379.922 253.718 379.895C253.664 379.075 253.472 378.118 253.144 377.025C252.844 375.959 252.461 375.029 251.996 374.237C252.816 374.319 253.554 374.373 254.21 374.401C254.894 374.401 255.44 374.401 255.85 374.401C256.424 374.401 256.889 374.155 257.244 373.663C257.518 373.307 257.736 372.487 257.9 371.203C258.064 369.918 258.201 368.005 258.31 365.463C258.42 362.921 258.502 359.6 258.556 355.5H256.055C255.864 359.19 255.481 362.565 254.907 365.627C254.333 368.688 253.418 371.435 252.16 373.868C250.903 376.3 249.154 378.432 246.912 380.264C246.639 379.799 246.256 379.266 245.764 378.665C245.3 378.091 244.808 377.544 244.288 377.025C241.172 377.325 238.084 377.612 235.022 377.886C231.988 378.159 229.269 378.405 226.863 378.624L226.207 373.704C227.328 373.649 228.572 373.581 229.938 373.499C231.305 373.417 232.74 373.321 234.243 373.212V371.449H227.355V367.308H234.243V366.242H227.519V353.204H234.243V352.179H226.535V347.956H234.243V346.972C232.057 347.081 229.884 347.163 227.724 347.218C227.642 346.616 227.478 345.919 227.232 345.127C226.986 344.307 226.727 343.61 226.453 343.036C228.503 342.926 230.594 342.79 232.726 342.626C234.886 342.434 236.949 342.216 238.917 341.97C240.885 341.696 242.648 341.396 244.206 341.068L246.707 345.455C245.641 345.673 244.507 345.878 243.304 346.07C242.129 346.234 240.899 346.384 239.614 346.521V347.956H247.035V352.179H239.614V353.204H246.502V366.242H239.614V367.308H246.748V371.449C248.033 369.399 248.935 367.062 249.454 364.438C249.974 361.786 250.302 358.807 250.438 355.5H247.199V350.047H250.561V341.724H256.26C256.26 343.172 256.26 344.594 256.26 345.988C256.26 347.382 256.247 348.735 256.219 350.047H264.337ZM232.193 358.042H234.243V356.812H232.193V358.042ZM239.614 356.812V358.042H241.623V356.812H239.614ZM234.243 362.634V361.404H232.193V362.634H234.243ZM241.623 361.404H239.614V362.634H241.623V361.404ZM239.614 372.843C240.708 372.761 241.787 372.679 242.853 372.597C243.947 372.515 245.04 372.433 246.133 372.351C246.243 372.214 246.338 372.077 246.42 371.941C246.53 371.777 246.639 371.613 246.748 371.449H239.614V372.843Z" fill="#220C25"/>
<path d="M343.631 346.562H330.88V342.134H343.631V346.562ZM367.657 366.283H358.924V379.854H353.061V366.283H344.574V360.666H353.061V348.366H345.886V342.831H366.96V348.366H358.924V360.666H367.657V366.283ZM345.189 352.384H328.748V347.751H345.189V352.384ZM359.498 358.78C359.772 357.905 360.031 356.921 360.277 355.828C360.551 354.734 360.783 353.627 360.974 352.507C361.193 351.359 361.357 350.306 361.466 349.35L367.083 350.457C366.564 352.179 366.045 353.887 365.525 355.582C365.006 357.249 364.514 358.684 364.049 359.887L359.498 358.78ZM350.683 349.719C351.093 351.167 351.449 352.739 351.749 354.434C352.05 356.128 352.241 357.604 352.323 358.862L347.321 359.969C347.321 359.121 347.253 358.165 347.116 357.099C346.98 356.033 346.816 354.939 346.624 353.819C346.433 352.698 346.214 351.659 345.968 350.703L350.683 349.719ZM330.757 353.614H343.713V358.042H330.757V353.614ZM330.757 359.272H343.713V363.7H330.757V359.272ZM343.631 377.804H335.595V379.28H330.593V365.053H343.631V377.804ZM335.595 369.686V373.171H338.547V369.686H335.595Z" fill="#220C25"/>
<path d="M450.313 354.024C449.794 354.434 449.275 354.83 448.755 355.213C448.263 355.568 447.744 355.896 447.197 356.197C446.979 355.65 446.678 355.035 446.295 354.352C445.913 353.641 445.53 352.985 445.147 352.384H431.248V347.751H446.213V350.17C447.389 349.35 448.509 348.42 449.575 347.382C450.669 346.343 451.653 345.263 452.527 344.143C453.402 343.022 454.113 341.97 454.659 340.986H459.948C460.878 342.325 461.916 343.637 463.064 344.922C464.24 346.179 465.483 347.327 466.795 348.366C468.107 349.377 469.447 350.183 470.813 350.785C470.267 351.468 469.706 352.288 469.132 353.245C468.586 354.201 468.107 355.103 467.697 355.951C467.205 355.65 466.713 355.336 466.221 355.008C465.729 354.652 465.237 354.283 464.745 353.901V356.607H450.313V354.024ZM444.655 346.562H433.38V342.134H444.655V346.562ZM462.285 351.769C461.329 350.867 460.44 349.937 459.62 348.981C458.8 348.024 458.09 347.108 457.488 346.234C456.313 348.038 454.782 349.883 452.896 351.769H462.285ZM444.778 358.042H433.134V353.614H444.778V358.042ZM468.394 374.893C468.394 375.877 468.299 376.683 468.107 377.312C467.943 377.968 467.574 378.487 467 378.87C466.454 379.225 465.852 379.444 465.196 379.526C464.54 379.635 463.816 379.69 463.023 379.69C462.969 379.143 462.832 378.528 462.613 377.845C462.422 377.189 462.217 376.574 461.998 376V379.444H458.185V371.49H456.955V379.444H453.183V371.49H452.035V379.567H447.115V358.452H468.394V374.893ZM433.134 359.272H444.778V363.7H433.134V359.272ZM458.185 366.857V363.126H456.955V366.857H458.185ZM453.183 366.857V363.126H452.035V366.857H453.183ZM461.998 363.126V366.857H463.31V363.126H461.998ZM444.901 377.722H437.767V379.28H432.97V365.053H444.901V377.722ZM437.767 369.645V373.13H440.063V369.645H437.767ZM461.998 375.262H462.941C463.187 375.262 463.31 375.111 463.31 374.811V371.49H461.998V375.262Z" fill="#220C25"/>
<path d="M538.094 382.068L534.486 379.977C535.115 379.703 535.73 379.389 536.331 379.034C536.933 378.678 537.384 378.255 537.684 377.763H537.479C536.987 377.763 536.468 377.64 535.921 377.394C535.402 377.148 534.951 376.765 534.568 376.246C534.213 375.726 534.035 375.07 534.035 374.278C534.035 373.676 534.186 373.048 534.486 372.392C534.814 371.736 535.32 371.175 536.003 370.711C536.714 370.219 537.657 369.973 538.832 369.973C540.336 369.973 541.402 370.383 542.03 371.203C542.686 372.023 543.014 373.061 543.014 374.319C543.014 375.029 542.837 375.877 542.481 376.861C542.153 377.872 541.62 378.856 540.882 379.813C540.172 380.769 539.242 381.521 538.094 382.068Z" fill="#220C25"/>
<path d="M647.687 357.14C647.66 357.878 647.633 358.616 647.605 359.354C647.605 360.092 647.578 360.843 647.523 361.609H668.023V379.895H661.422V367.882H646.662C646.198 370.123 645.473 372.296 644.489 374.401C643.533 376.505 642.207 378.446 640.512 380.223C640.184 379.703 639.747 379.129 639.2 378.501C638.654 377.872 638.08 377.257 637.478 376.656C636.877 376.082 636.33 375.617 635.838 375.262C637.506 373.485 638.736 371.503 639.528 369.317C640.321 367.13 640.827 364.861 641.045 362.511C641.291 360.16 641.414 357.878 641.414 355.664V341.724H647.687V350.949H656.871V340.986H663.349V350.949H672.041V357.14H647.687Z" fill="#220C25"/>
<path d="M774.787 350.949H759.248V342.544H774.787V350.949ZM757.28 350.949H741.864V342.544H757.28V350.949ZM769.211 345.988H764.496V347.505H769.211V345.988ZM751.704 345.988H747.112V347.505H751.704V345.988ZM776.755 375.016H761.134V379.895H754.943V375.016H739.814V369.932H754.943V368.374H743.545V352.302H773.27V368.374H761.134V369.932H776.755V375.016ZM749.367 358.247H754.943V356.812H749.367V358.247ZM767.12 356.812H761.134V358.247H767.12V356.812ZM754.943 363.864V362.429H749.367V363.864H754.943ZM767.12 362.429H761.134V363.864H767.12V362.429Z" fill="#220C25"/>
<path d="M868.8 341.232C869.648 342.899 870.727 344.621 872.039 346.398C873.379 348.174 874.814 349.869 876.344 351.482C877.902 353.094 879.433 354.516 880.936 355.746C880.417 356.156 879.829 356.689 879.173 357.345C878.517 357.973 877.889 358.629 877.287 359.313C876.713 359.969 876.235 360.584 875.852 361.158C875.579 360.857 875.278 360.556 874.95 360.256C874.65 359.955 874.349 359.641 874.048 359.313C873.939 363.139 873.802 366.283 873.638 368.743C873.474 371.175 873.255 373.061 872.982 374.401C872.709 375.74 872.34 376.697 871.875 377.271C871.274 378.036 870.645 378.569 869.989 378.87C869.361 379.198 868.623 379.43 867.775 379.567C867.065 379.676 866.163 379.744 865.069 379.772C864.003 379.799 862.883 379.799 861.707 379.772C861.68 378.897 861.475 377.886 861.092 376.738C860.737 375.59 860.286 374.592 859.739 373.745C860.778 373.827 861.734 373.881 862.609 373.909C863.511 373.936 864.222 373.95 864.741 373.95C865.097 373.95 865.397 373.909 865.643 373.827C865.889 373.745 866.135 373.581 866.381 373.335C866.764 372.925 867.051 371.804 867.242 369.973C867.461 368.141 867.639 365.326 867.775 361.527H861.051C860.805 363.467 860.409 365.34 859.862 367.144C859.343 368.948 858.55 370.656 857.484 372.269C856.418 373.854 854.997 375.316 853.22 376.656C851.471 377.995 849.243 379.184 846.537 380.223C846.291 379.649 845.95 379.02 845.512 378.337C845.102 377.653 844.638 376.984 844.118 376.328C843.626 375.672 843.134 375.125 842.642 374.688C844.884 373.95 846.729 373.102 848.177 372.146C849.653 371.189 850.815 370.15 851.662 369.03C852.51 367.909 853.152 366.72 853.589 365.463C854.027 364.178 854.341 362.866 854.532 361.527H848.382V358.903C847.918 359.367 847.439 359.818 846.947 360.256C846.483 360.693 846.004 361.103 845.512 361.486C845.157 361.048 844.665 360.529 844.036 359.928C843.408 359.299 842.765 358.684 842.109 358.083C841.453 357.481 840.879 357.003 840.387 356.648C842.082 355.527 843.695 354.174 845.225 352.589C846.756 350.976 848.136 349.213 849.366 347.3C850.624 345.359 851.649 343.364 852.441 341.314L858.919 343.2C857.963 345.441 856.828 347.641 855.516 349.801C854.204 351.933 852.783 353.914 851.252 355.746H870.973C869.47 353.887 868.021 351.919 866.627 349.842C865.233 347.737 863.99 345.646 862.896 343.569L868.8 341.232Z" fill="#220C25"/>
<path d="M981.099 348.653H945.265V343.692H959.861V340.945H966.175V343.692H981.099V348.653ZM949.775 359.559V350.088H976.999V359.559H949.775ZM955.72 355.582H970.644V354.065H955.72V355.582ZM981.878 372.72H966.298V374.688C966.298 376.082 966.066 377.12 965.601 377.804C965.137 378.487 964.344 379.006 963.223 379.362C962.13 379.662 960.859 379.84 959.41 379.895C957.962 379.949 956.349 379.977 954.572 379.977C954.381 379.211 954.094 378.378 953.711 377.476C953.328 376.574 952.946 375.781 952.563 375.098C953.274 375.125 954.067 375.152 954.941 375.18C955.843 375.207 956.663 375.221 957.401 375.221C958.139 375.221 958.617 375.221 958.836 375.221C959.246 375.193 959.533 375.125 959.697 375.016C959.861 374.906 959.943 374.701 959.943 374.401V372.72H944.568V367.718H959.943V366.406H962.485C962.95 366.242 963.401 366.064 963.838 365.873C964.303 365.681 964.754 365.49 965.191 365.299H948.668V360.748H972.817L974.17 360.502L977.819 363.741C976.671 364.424 975.441 365.107 974.129 365.791C972.845 366.474 971.505 367.116 970.111 367.718H981.878V372.72Z" fill="#220C25"/>
<path d="M112.869 232.4H173.869L165.118 282C165.118 282 163 299.325 141.912 302.121C120.825 304.916 86.8932 305.582 86.8932 305.582L89.9937 261.574C89.9937 261.574 106.92 262.069 108.568 261.08C110.216 260.091 112.869 232.4 112.869 232.4Z" fill="#220C25"/>
<path fill-rule="evenodd" clip-rule="evenodd" d="M192.74 126.584H124.74L123.257 136.473H45.2572L40.6591 167.13H264.659L269.257 136.473H191.257L192.74 126.584Z" fill="#220C25"/>
<path fill-rule="evenodd" clip-rule="evenodd" d="M80.6206 174.053H41.6206L32.8693 232.401H71.8693H102.869H181.869H187.869H251.869L260.621 174.053H196.621H190.621H111.621H80.6206ZM108.061 197.788L107.022 204.71H186.022L187.061 197.788H108.061Z" fill="#220C25"/>
<path fill-rule="evenodd" clip-rule="evenodd" d="M61.0515 44.5024H100.052H131.052H210.052H216.052H280.052L267.295 129.551H203.295H197.295H118.295H87.2954H48.2954L61.0515 44.5024ZM125.712 80.1042L126.75 73.1817H205.75L204.712 80.1042H125.712ZM123.338 95.9272L122.449 101.861H201.449L202.338 95.9272H123.338Z" fill="#220C25"/>
<path d="M251.503 311.516L272.343 172.57C295.343 172.57 373.257 136.474 389.111 124.112L368.642 260.585C346.324 279.375 275.745 306.571 251.503 311.516Z" fill="#220C25"/>
<path d="M383.415 30.2382L398.953 63.1703C366.334 100.372 296.899 145.675 282.251 148.314L280.741 109.918C316.727 93.6457 371.255 41.8265 383.415 30.2382Z" fill="#220C25"/>
<path d="M251.503 311.516L272.343 172.57C295.343 172.57 373.257 136.474 389.111 124.112L368.642 260.585C346.324 279.375 275.745 306.571 251.503 311.516Z" fill="#220C25"/>
<path d="M201.932 298.66C209.177 290.353 232.115 274.101 242.678 267.014C240.735 256.63 202.111 227.456 199.111 227.456C196.711 227.456 171.626 246.246 159.384 255.641C170.653 267.178 194.94 291.935 201.932 298.66Z" fill="#220C25"/>
<path d="M11.7522 266.519C17.906 273.791 47.8323 293.131 51.6899 303.604C76.6923 290.253 104.913 248.673 105.867 245.751C106.63 243.412 66.1855 226.961 66.1855 226.961C50.8569 237.644 25.7904 259.596 11.7522 266.519Z" fill="#220C25"/>
<path fill-rule="evenodd" clip-rule="evenodd" d="M714.434 181.965H398.434L395.468 201.744L392.946 218.556L391.759 226.467L387.013 258.113L385.975 265.036L380.338 302.615L379.745 306.571H455.745L456.338 302.615H620.338L619.745 306.571H695.745L696.338 302.615L701.975 265.036L703.013 258.113L707.759 226.467L708.946 218.556L711.468 201.744L714.434 181.965ZM627.013 258.113L625.975 265.036H579.975L581.013 258.113H627.013ZM509.013 258.113L507.975 265.036H461.975L463.013 258.113H509.013ZM585.759 226.467H631.759L632.946 218.556H586.946L585.759 226.467ZM514.946 218.556L513.759 226.467H467.759L468.946 218.556H514.946Z" fill="#220C25"/>
<path fill-rule="evenodd" clip-rule="evenodd" d="M421.052 44.5024H733.052L725.932 91.9715H607.932L607.19 96.9162H735.19L723.324 176.031H581.324L585.774 146.363C587.74 133.255 578.588 122.629 565.334 122.629C552.079 122.629 539.74 133.255 537.774 146.363L533.324 176.031H391.324L403.19 96.9162H531.19L531.932 91.9715H413.932L421.052 44.5024Z" fill="#220C25"/>
<path d="M622.779 119.662H697.779L691.697 160.208H636.697C625.651 160.208 618.025 151.353 619.664 140.429L622.779 119.662Z" fill="#FF0000"/>
<path d="M507.779 119.662H432.779L426.697 160.208H481.697C492.743 160.208 503.025 151.353 504.664 140.429L507.779 119.662Z" fill="#0075FF"/>
<path d="M740.876 105.678L768.894 46.48C776.897 46.48 821.45 64.3888 842.726 73.3431L817.915 128.562C809.663 125.577 750.296 106.673 740.876 105.678Z" fill="#220C25"/>
<path fill-rule="evenodd" clip-rule="evenodd" d="M1006.05 57.853C1005.11 64.101 997.951 69.6174 987.79 72.9181L986.118 84.0598H1085.12L1046.32 118.92L1039.47 128.562H1077.44L1072.4 162.186H990.401L989.511 168.12H1066.51L1062.51 194.821H985.506L984.616 200.755H1065.62L1059.83 239.323H978.831L977.595 247.564C1011.56 246.964 1041.26 245.33 1057.97 244.41C1064.07 244.075 1068.44 243.834 1070.66 243.773C1056.64 263.134 1052.23 281.711 1048.75 296.369C1048.32 298.184 1047.9 299.938 1047.49 301.626C1044.74 301.705 1041.81 301.791 1038.69 301.882C1008.99 302.756 962.754 304.117 902.19 303.604C843.764 303.11 801.415 288.77 784.176 280.364C774.892 288.359 747.751 300.827 735.877 306.281C735.266 306.562 734.696 306.824 734.171 307.065C734.606 304.166 731.192 278.804 728.29 257.242C726.738 245.712 725.333 235.269 724.74 229.928C734.187 228.007 744.109 222.166 751.17 217.063L754.951 191.854H736.951L745.554 134.496H836.554L828.692 186.909L827.951 191.854L821.269 236.405C823.764 237.049 826.341 237.66 828.994 238.238L834.616 200.755H910.616L911.506 194.821H833.506L837.511 168.12H915.511L916.401 162.186H837.401L842.444 128.562H877.599L874.137 117.758L844.118 84.0598H944.118L945.79 72.9181C936.619 69.6174 931.112 64.101 932.049 57.853C933.565 47.7487 951.359 39.5576 971.793 39.5576C992.228 39.5576 1007.56 47.7487 1006.05 57.853ZM834.248 239.323C854.557 243.296 878.709 245.568 903.719 246.739L904.831 239.323H834.248Z" fill="#220C25"/>
<path d="M1067.72 53.4027C1069.84 39.2394 1061.45 25.6562 1044.38 15.6413C1027.32 5.62634 1002.98 1.0693e-06 976.726 0C950.47 -1.0693e-06 924.445 5.62633 904.377 15.6413C884.309 25.6562 871.841 39.2394 869.717 53.4027L920.168 53.4027C921.209 46.4571 927.323 39.7959 937.165 34.8847C947.006 29.9734 959.769 27.2143 972.645 27.2143C985.521 27.2143 997.455 29.9734 1005.82 34.8847C1014.19 39.796 1018.31 46.4571 1017.27 53.4027H1067.72Z" fill="#220C25"/>
</svg>
